<svg width="22" height="22" viewBox="0 0 22 22" fill="none" xmlns="http://www.w3.org/2000/svg">
<path d="M2.75 2.75H4.58333L4.95 4.58333M4.95 4.58333H19.25L15.5833 11.9167H6.41667M4.95 4.58333L6.41667 11.9167M6.41667 11.9167L4.31475 14.0186C3.73725 14.5961 4.14608 15.5833 4.96283 15.5833H15.5833M15.5833 15.5833C15.0971 15.5833 14.6308 15.7765 14.287 16.1203C13.9432 16.4641 13.75 16.9304 13.75 17.4167C13.75 17.9029 13.9432 18.3692 14.287 18.713C14.6308 19.0568 15.0971 19.25 15.5833 19.25C16.0696 19.25 16.5359 19.0568 16.8797 18.713C17.2235 18.3692 17.4167 17.9029 17.4167 17.4167C17.4167 16.9304 17.2235 16.4641 16.8797 16.1203C16.5359 15.7765 16.0696 15.5833 15.5833 15.5833ZM8.25 17.4167C8.25 17.9029 8.05685 18.3692 7.71303 18.713C7.36921 19.0568 6.9029 19.25 6.41667 19.25C5.93044 19.25 5.46412 19.0568 5.1203 18.713C4.77649 18.3692 4.58333 17.9029 4.58333 17.4167C4.58333 16.9304 4.77649 16.4641 5.1203 16.1203C5.46412 15.7765 5.93044 15.5833 6.41667 15.5833C6.9029 15.5833 7.36921 15.7765 7.71303 16.1203C8.05685 16.4641 8.25 16.9304 8.25 17.4167Z" stroke="black" stroke-width="2" stroke-linecap="round" stroke-linejoin="round"/>
</svg>
