<svg width="16" height="16" viewBox="0 0 16 16" fill="none" xmlns="http://www.w3.org/2000/svg">
<path d="M2.28571 0C1.67951 0 1.09812 0.240816 0.66947 0.66947C0.240816 1.09812 0 1.67951 0 2.28571V4.57143C0 5.17764 0.240816 5.75902 0.66947 6.18767C1.09812 6.61633 1.67951 6.85714 2.28571 6.85714H4.57143C5.17764 6.85714 5.75902 6.61633 6.18767 6.18767C6.61633 5.75902 6.85714 5.17764 6.85714 4.57143V2.28571C6.85714 1.67951 6.61633 1.09812 6.18767 0.66947C5.75902 0.240816 5.17764 0 4.57143 0H2.28571ZM2.28571 9.14286C1.67951 9.14286 1.09812 9.38367 0.66947 9.81233C0.240816 10.241 0 10.8224 0 11.4286V13.7143C0 14.3205 0.240816 14.9019 0.66947 15.3305C1.09812 15.7592 1.67951 16 2.28571 16H4.57143C5.17764 16 5.75902 15.7592 6.18767 15.3305C6.61633 14.9019 6.85714 14.3205 6.85714 13.7143V11.4286C6.85714 10.8224 6.61633 10.241 6.18767 9.81233C5.75902 9.38367 5.17764 9.14286 4.57143 9.14286H2.28571ZM9.14286 2.28571C9.14286 1.67951 9.38367 1.09812 9.81233 0.66947C10.241 0.240816 10.8224 0 11.4286 0H13.7143C14.3205 0 14.9019 0.240816 15.3305 0.66947C15.7592 1.09812 16 1.67951 16 2.28571V4.57143C16 5.17764 15.7592 5.75902 15.3305 6.18767C14.9019 6.61633 14.3205 6.85714 13.7143 6.85714H11.4286C10.8224 6.85714 10.241 6.61633 9.81233 6.18767C9.38367 5.75902 9.14286 5.17764 9.14286 4.57143V2.28571ZM9.14286 11.4286C9.14286 10.8224 9.38367 10.241 9.81233 9.81233C10.241 9.38367 10.8224 9.14286 11.4286 9.14286H13.7143C14.3205 9.14286 14.9019 9.38367 15.3305 9.81233C15.7592 10.241 16 10.8224 16 11.4286V13.7143C16 14.3205 15.7592 14.9019 15.3305 15.3305C14.9019 15.7592 14.3205 16 13.7143 16H11.4286C10.8224 16 10.241 15.7592 9.81233 15.3305C9.38367 14.9019 9.14286 14.3205 9.14286 13.7143V11.4286Z" fill="black"/>
</svg>
