<svg width="6" height="10" viewBox="0 0 6 10" fill="none" xmlns="http://www.w3.org/2000/svg">
<path fill-rule="evenodd" clip-rule="evenodd" d="M0.292787 9.69471C0.105316 9.50718 0 9.25288 0 8.98771C0 8.72255 0.105316 8.46824 0.292787 8.28071L3.58579 4.98771L0.292787 1.69471C0.110629 1.50611 0.00983372 1.25351 0.0121121 0.991311C0.0143906 0.729114 0.11956 0.478302 0.304968 0.292894C0.490376 0.107485 0.741189 0.00231622 1.00339 3.78025e-05C1.26558 -0.00224062 1.51818 0.0985542 1.70679 0.280712L5.70679 4.28071C5.89426 4.46824 5.99957 4.72255 5.99957 4.98771C5.99957 5.25288 5.89426 5.50718 5.70679 5.69471L1.70679 9.69471C1.51926 9.88218 1.26495 9.9875 0.999786 9.9875C0.734622 9.9875 0.480314 9.88218 0.292787 9.69471Z" fill="black"/>
</svg>
