<svg width="31" height="33" viewBox="0 0 31 33" fill="none" xmlns="http://www.w3.org/2000/svg">
<path d="M29.2821 0H1.71792C1.26334 0.00359794 0.828344 0.197424 0.506901 0.539605C0.185459 0.881785 0.00337988 1.34485 0 1.82875V31.1712C0.00337988 31.6552 0.185459 32.1182 0.506901 32.4604C0.828344 32.8026 1.26334 32.9964 1.71792 33H16.5592V20.24H12.5292V15.2488H16.5592V11.5775C16.5592 7.315 19.0004 4.99125 22.5912 4.99125C23.7925 4.99125 24.9937 4.99125 26.195 5.18375V9.625H23.7279C21.7775 9.625 21.4029 10.615 21.4029 12.0588V15.235H26.0529L25.4458 20.2262H21.4029V33H29.2821C29.7367 32.9964 30.1717 32.8026 30.4931 32.4604C30.8145 32.1182 30.9966 31.6552 31 31.1712V1.82875C30.9966 1.34485 30.8145 0.881785 30.4931 0.539605C30.1717 0.197424 29.7367 0.00359794 29.2821 0Z" fill="white"/>
</svg>
