<svg width="20" height="20" viewBox="0 0 20 20" fill="none" xmlns="http://www.w3.org/2000/svg">
<path d="M10.8851 0.365988C10.6503 0.131646 10.332 0 10 0C9.66803 0 9.34966 0.131646 9.11489 0.365988L0.351429 9.11611C0.123382 9.35186 -0.00280508 9.66762 4.7326e-05 9.99537C0.00289973 10.3231 0.134563 10.6366 0.36668 10.8684C0.598796 11.1002 0.912794 11.2316 1.24104 11.2345C1.56929 11.2373 1.88553 11.1113 2.12165 10.8836L2.48846 10.5174V18.75C2.48846 19.0815 2.62036 19.3995 2.85514 19.6339C3.08992 19.8683 3.40835 20 3.74038 20H6.24423C6.57626 20 6.89469 19.8683 7.12947 19.6339C7.36425 19.3995 7.49615 19.0815 7.49615 18.75V16.25C7.49615 15.9184 7.62805 15.6005 7.86283 15.3661C8.09761 15.1316 8.41605 14.9999 8.74808 14.9999H11.2519C11.584 14.9999 11.9024 15.1316 12.1372 15.3661C12.3719 15.6005 12.5038 15.9184 12.5038 16.25V18.75C12.5038 19.0815 12.6357 19.3995 12.8705 19.6339C13.1053 19.8683 13.4237 20 13.7558 20H16.2596C16.5916 20 16.9101 19.8683 17.1449 19.6339C17.3796 19.3995 17.5115 19.0815 17.5115 18.75V10.5174L17.8783 10.8836C18.1145 11.1113 18.4307 11.2373 18.759 11.2345C19.0872 11.2316 19.4012 11.1002 19.6333 10.8684C19.8654 10.6366 19.9971 10.3231 20 9.99537C20.0028 9.66762 19.8766 9.35186 19.6486 9.11611L10.8851 0.365988Z" fill="black"/>
</svg>
