<svg width="22" height="22" viewBox="0 0 22 22" fill="none" xmlns="http://www.w3.org/2000/svg">
<path d="M2.75 11L4.58333 9.16667M4.58333 9.16667L11 2.75L17.4167 9.16667M4.58333 9.16667V18.3333C4.58333 18.5764 4.67991 18.8096 4.85182 18.9815C5.02373 19.1534 5.25688 19.25 5.5 19.25H8.25M17.4167 9.16667L19.25 11M17.4167 9.16667V18.3333C17.4167 18.5764 17.3201 18.8096 17.1482 18.9815C16.9763 19.1534 16.7431 19.25 16.5 19.25H13.75M8.25 19.25C8.49312 19.25 8.72627 19.1534 8.89818 18.9815C9.07009 18.8096 9.16667 18.5764 9.16667 18.3333V14.6667C9.16667 14.4236 9.26324 14.1904 9.43515 14.0185C9.60706 13.8466 9.84022 13.75 10.0833 13.75H11.9167C12.1598 13.75 12.3929 13.8466 12.5648 14.0185C12.7368 14.1904 12.8333 14.4236 12.8333 14.6667V18.3333C12.8333 18.5764 12.9299 18.8096 13.1018 18.9815C13.2737 19.1534 13.5069 19.25 13.75 19.25M8.25 19.25H13.75" stroke="black" stroke-width="2" stroke-linecap="round" stroke-linejoin="round"/>
</svg>
