<svg width="22" height="22" viewBox="0 0 22 22" fill="none" xmlns="http://www.w3.org/2000/svg">
<path fill-rule="evenodd" clip-rule="evenodd" d="M3.48943 5.68922C4.31455 4.86434 5.43351 4.40095 6.60023 4.40095C7.76695 4.40095 8.88591 4.86434 9.71103 5.68922L11.0002 6.97732L12.2894 5.68922C12.6953 5.26897 13.1808 4.93377 13.7177 4.70317C14.2545 4.47257 14.8318 4.35119 15.4161 4.34611C16.0003 4.34104 16.5797 4.45236 17.1204 4.6736C17.6612 4.89484 18.1524 5.22155 18.5656 5.63468C18.9787 6.0478 19.3054 6.53907 19.5266 7.07982C19.7479 7.62056 19.8592 8.19995 19.8541 8.78418C19.8491 9.36841 19.7277 9.94578 19.4971 10.4826C19.2665 11.0194 18.9313 11.5049 18.511 11.9108L11.0002 19.4227L3.48943 11.9108C2.66456 11.0857 2.20117 9.96674 2.20117 8.80002C2.20117 7.63329 2.66456 6.51434 3.48943 5.68922Z" fill="black"/>
</svg>
