<svg width="22" height="22" viewBox="0 0 22 22" fill="none" xmlns="http://www.w3.org/2000/svg">
<path d="M3.9582 5.79152C3.57516 6.17456 3.27131 6.6293 3.064 7.12977C2.8567 7.63024 2.75 8.16664 2.75 8.70835C2.75 9.25006 2.8567 9.78646 3.064 10.2869C3.27131 10.7874 3.57516 11.2421 3.9582 11.6252L11 18.667L18.0419 11.6252C18.8155 10.8516 19.2501 9.80237 19.2501 8.70835C19.2501 7.61432 18.8155 6.56511 18.0419 5.79152C17.2683 5.01792 16.2191 4.58332 15.125 4.58332C14.031 4.58332 12.9818 5.01792 12.2082 5.79152L11 6.99968L9.79187 5.79152C9.40883 5.40847 8.95409 5.10462 8.45362 4.89731C7.95314 4.69001 7.41674 4.58331 6.87504 4.58331C6.33333 4.58331 5.79693 4.69001 5.29645 4.89731C4.79598 5.10462 4.34124 5.40847 3.9582 5.79152Z" stroke="black" stroke-width="2" stroke-linecap="round" stroke-linejoin="round"/>
</svg>
