<svg width="22" height="21" viewBox="0 0 22 21" fill="none" xmlns="http://www.w3.org/2000/svg">
<path d="M2.46448 2.62996C2.00018 3.14671 1.63188 3.76019 1.38061 4.43536C1.12933 5.11054 1 5.83419 1 6.56499C1 7.2958 1.12933 8.01944 1.38061 8.69462C1.63188 9.36979 2.00018 9.98327 2.46448 10.5L11 20L19.5355 10.5C20.4732 9.45639 21 8.04091 21 6.56499C21 5.08907 20.4732 3.67359 19.5355 2.62996C18.5978 1.58632 17.3261 1.00001 16 1.00001C14.6739 1.00001 13.4021 1.58632 12.4644 2.62996L11 4.25987L9.53557 2.62996C9.07128 2.1132 8.52008 1.70328 7.91345 1.42361C7.30682 1.14394 6.65664 1 6.00003 1C5.34341 1 4.69323 1.14394 4.0866 1.42361C3.47997 1.70328 2.92877 2.1132 2.46448 2.62996Z" stroke="white" stroke-width="2" stroke-linecap="round" stroke-linejoin="round"/>
</svg>
