<svg width="82" height="20" viewBox="0 0 82 20" fill="none" xmlns="http://www.w3.org/2000/svg">
<path d="M22.3721 19.46C22.3721 19.6467 22.1854 19.74 21.8121 19.74H21.6161C21.2054 19.74 20.4774 19.7307 19.4321 19.712C18.4054 19.6933 17.6401 19.684 17.1361 19.684C16.9308 19.684 16.5014 19.6933 15.8481 19.712C15.2134 19.712 14.3548 19.712 13.2721 19.712H12.5721C12.3108 19.712 12.1801 19.628 12.1801 19.46C12.1801 19.292 12.3108 19.208 12.5721 19.208L13.5241 19.236C14.3828 19.2547 14.9054 19.1053 15.0921 18.788C15.1481 18.6947 15.1761 18.1347 15.1761 17.108L15.1481 1.93201C14.5508 3.48134 13.7668 5.94534 12.7961 9.32401L10.3601 17.892C10.0614 18.9373 9.81877 19.46 9.63211 19.46C9.42677 19.46 9.24011 19.1987 9.07211 18.676C9.01611 18.508 8.41877 16.716 7.28011 13.3C6.85077 12.012 5.68411 8.40001 3.78011 2.46401V16.94C3.78011 17.78 3.78944 18.284 3.80811 18.452C3.82677 18.6013 3.91077 18.732 4.06011 18.844C4.34011 19.0867 4.81611 19.1987 5.48811 19.18C6.16011 19.1613 6.49611 19.264 6.49611 19.488C6.49611 19.6187 6.35611 19.684 6.07611 19.684L3.58411 19.628C3.15477 19.6093 2.66011 19.6187 2.10011 19.656C1.35344 19.6933 0.849439 19.712 0.588105 19.712C0.196105 19.712 0.000105444 19.628 0.000105444 19.46C0.000105444 19.3107 0.158772 19.236 0.476105 19.236C1.22277 19.236 1.67077 19.2267 1.82011 19.208C2.39877 19.1333 2.73477 18.9187 2.82811 18.564C2.88411 18.34 2.91211 17.8733 2.91211 17.164V3.808C2.91211 2.31467 2.81877 1.44667 2.63211 1.204C2.46411 0.942671 1.80144 0.812005 0.644105 0.812005C0.345439 0.812005 0.196105 0.728005 0.196105 0.560005C0.196105 0.373338 0.354772 0.289338 0.672105 0.308005L1.42811 0.336004L6.72011 0.308005C6.77611 0.308005 6.87877 0.317338 7.02811 0.336004C8.61477 5.50667 9.95877 9.80001 11.0601 13.216L14.8401 0.308005H15.4281L19.1241 0.336004C19.1801 0.336004 19.3388 0.336004 19.6001 0.336004C19.8801 0.317338 20.1321 0.308005 20.3561 0.308005H21.6441C22.0174 0.308005 22.2041 0.392005 22.2041 0.560005C22.2041 0.746671 22.0921 0.830671 21.8681 0.812005L21.2241 0.784005C20.4401 0.746671 19.9081 0.821338 19.6281 1.00801C19.3668 1.19467 19.2361 1.55867 19.2361 2.1C19.2361 2.24934 19.2454 2.57601 19.2641 3.08001C19.2828 3.58401 19.2921 5.92667 19.2921 10.108V17.92C19.2921 18.592 19.4601 18.984 19.7961 19.096C20.1508 19.1893 20.6641 19.2267 21.3361 19.208C22.0268 19.1893 22.3721 19.2733 22.3721 19.46ZM41.3038 9.99601C41.3038 12.796 40.4265 15.1667 38.6718 17.108C36.9358 19.0307 34.7985 19.992 32.2598 19.992C29.7772 19.992 27.6492 19.012 25.8758 17.052C24.1025 15.092 23.2158 12.7307 23.2158 9.96801C23.2158 7.13067 24.0932 4.76001 25.8478 2.85601C27.6212 0.952005 29.8145 5.24521e-06 32.4278 5.24521e-06C34.9478 5.24521e-06 37.0572 0.961338 38.7558 2.884C40.4545 4.78801 41.3038 7.15867 41.3038 9.99601ZM36.3758 10.444C36.3758 6.72934 35.9372 3.98534 35.0598 2.21201C34.4812 1.05467 33.5665 0.476004 32.3158 0.476004C31.0465 0.476004 30.0292 1.288 29.2638 2.912C28.5172 4.536 28.1438 6.71067 28.1438 9.43601C28.1438 13.3933 28.8158 16.352 30.1598 18.312C30.7198 19.1333 31.5318 19.544 32.5958 19.544C33.8278 19.544 34.6958 18.956 35.1998 17.78C35.9838 15.9507 36.3758 13.5053 36.3758 10.444ZM61.3787 9.85601C61.3787 11.984 60.8934 13.8227 59.9227 15.372C58.9147 16.996 57.4494 18.1813 55.5267 18.928C54.2201 19.432 52.2694 19.684 49.6747 19.684C49.6374 19.684 49.4321 19.6747 49.0587 19.656C48.6854 19.6373 48.1441 19.628 47.4347 19.628H46.4267C46.3894 19.628 45.7827 19.6373 44.6067 19.656L42.8427 19.684C42.5627 19.684 42.4227 19.6093 42.4227 19.46C42.4227 19.2733 42.6841 19.1893 43.2067 19.208C44.0094 19.2267 44.4947 19.0867 44.6627 18.788C44.7374 18.6573 44.7747 18.088 44.7747 17.08V2.82801C44.7747 2.00667 44.7187 1.50267 44.6067 1.316C44.4201 0.980005 43.9441 0.821338 43.1787 0.840004C42.7681 0.858672 42.5627 0.765339 42.5627 0.560005C42.5627 0.392005 42.6934 0.308005 42.9547 0.308005H43.4587C44.5787 0.308005 45.6614 0.317338 46.7067 0.336004C48.2001 0.354672 49.3574 0.364006 50.1787 0.364006C53.5761 0.364006 56.1801 1.06401 57.9907 2.46401C60.2494 4.21867 61.3787 6.68267 61.3787 9.85601ZM56.5347 9.85601C56.5347 6.776 56.0774 4.52667 55.1627 3.10801C54.2481 1.67067 52.8107 0.952005 50.8507 0.952005C50.1414 0.952005 49.6747 1.02667 49.4507 1.17601C49.1521 1.36267 49.0027 1.80134 49.0027 2.492V16.828C49.0027 18.06 49.0774 18.7413 49.2267 18.872C49.4507 19.0773 49.9454 19.18 50.7107 19.18C54.5934 19.18 56.5347 16.072 56.5347 9.85601ZM81.2257 9.99601C81.2257 12.796 80.3484 15.1667 78.5937 17.108C76.8577 19.0307 74.7204 19.992 72.1817 19.992C69.699 19.992 67.571 19.012 65.7977 17.052C64.0244 15.092 63.1377 12.7307 63.1377 9.96801C63.1377 7.13067 64.015 4.76001 65.7697 2.85601C67.543 0.952005 69.7364 5.24521e-06 72.3497 5.24521e-06C74.8697 5.24521e-06 76.979 0.961338 78.6777 2.884C80.3764 4.78801 81.2257 7.15867 81.2257 9.99601ZM76.2977 10.444C76.2977 6.72934 75.859 3.98534 74.9817 2.21201C74.403 1.05467 73.4884 0.476004 72.2377 0.476004C70.9684 0.476004 69.951 1.288 69.1857 2.912C68.439 4.536 68.0657 6.71067 68.0657 9.43601C68.0657 13.3933 68.7377 16.352 70.0817 18.312C70.6417 19.1333 71.4537 19.544 72.5177 19.544C73.7497 19.544 74.6177 18.956 75.1217 17.78C75.9057 15.9507 76.2977 13.5053 76.2977 10.444Z" fill="black"/>
</svg>
