<svg width="93" height="23" viewBox="0 0 93 23" fill="none" xmlns="http://www.w3.org/2000/svg">
<path d="M25.5681 22.24C25.5681 22.4533 25.3547 22.56 24.9281 22.56H24.7041C24.2347 22.56 23.4027 22.5493 22.2081 22.528C21.0347 22.5067 20.1601 22.496 19.5841 22.496C19.3494 22.496 18.8587 22.5067 18.1121 22.528C17.3867 22.528 16.4054 22.528 15.1681 22.528H14.3681C14.0694 22.528 13.9201 22.432 13.9201 22.24C13.9201 22.048 14.0694 21.952 14.3681 21.952L15.4561 21.984C16.4374 22.0053 17.0347 21.8347 17.2481 21.472C17.3121 21.3653 17.3441 20.7253 17.3441 19.552L17.3121 2.208C16.6294 3.97867 15.7334 6.79467 14.6241 10.656L11.8401 20.448C11.4987 21.6427 11.2214 22.24 11.0081 22.24C10.7734 22.24 10.5601 21.9413 10.3681 21.344C10.3041 21.152 9.62138 19.104 8.32005 15.2C7.82938 13.728 6.49605 9.6 4.32005 2.816V19.36C4.32005 20.32 4.33072 20.896 4.35205 21.088C4.37338 21.2587 4.46938 21.408 4.64005 21.536C4.96005 21.8133 5.50405 21.9413 6.27205 21.92C7.04005 21.8987 7.42405 22.016 7.42405 22.272C7.42405 22.4213 7.26405 22.496 6.94405 22.496L4.09605 22.432C3.60538 22.4107 3.04005 22.4213 2.40005 22.464C1.54672 22.5067 0.970717 22.528 0.672051 22.528C0.224051 22.528 5.07534e-05 22.432 5.07534e-05 22.24C5.07534e-05 22.0693 0.181384 21.984 0.544051 21.984C1.39738 21.984 1.90938 21.9733 2.08005 21.952C2.74138 21.8667 3.12538 21.6213 3.23205 21.216C3.29605 20.96 3.32805 20.4267 3.32805 19.616V4.352C3.32805 2.64534 3.22138 1.65334 3.00805 1.376C2.81605 1.07734 2.05872 0.928003 0.736051 0.928003C0.394717 0.928003 0.224051 0.832003 0.224051 0.640003C0.224051 0.42667 0.405384 0.33067 0.768051 0.352003L1.63205 0.384003L7.68005 0.352003C7.74405 0.352003 7.86138 0.36267 8.03205 0.384003C9.84538 6.29334 11.3814 11.2 12.6401 15.104L16.9601 0.352003H17.6321L21.8561 0.384003C21.9201 0.384003 22.1014 0.384003 22.4001 0.384003C22.7201 0.36267 23.0081 0.352003 23.2641 0.352003H24.7361C25.1627 0.352003 25.3761 0.448003 25.3761 0.640003C25.3761 0.853336 25.2481 0.949336 24.9921 0.928003L24.2561 0.896004C23.3601 0.853336 22.7521 0.93867 22.4321 1.152C22.1334 1.36534 21.9841 1.78134 21.9841 2.4C21.9841 2.57067 21.9947 2.944 22.0161 3.52C22.0374 4.096 22.0481 6.77334 22.0481 11.552V20.48C22.0481 21.248 22.2401 21.696 22.6241 21.824C23.0294 21.9307 23.6161 21.9733 24.3841 21.952C25.1734 21.9307 25.5681 22.0267 25.5681 22.24ZM47.2043 11.424C47.2043 14.624 46.2016 17.3333 44.1963 19.552C42.2123 21.7493 39.7696 22.848 36.8683 22.848C34.031 22.848 31.599 21.728 29.5723 19.488C27.5456 17.248 26.5323 14.5493 26.5323 11.392C26.5323 8.14934 27.535 5.44 29.5403 3.264C31.567 1.088 34.0736 3.8147e-06 37.0603 3.8147e-06C39.9403 3.8147e-06 42.351 1.09867 44.2923 3.296C46.2336 5.472 47.2043 8.18134 47.2043 11.424ZM41.5723 11.936C41.5723 7.69067 41.071 4.55467 40.0683 2.528C39.407 1.20534 38.3616 0.544003 36.9323 0.544003C35.4816 0.544003 34.319 1.472 33.4443 3.328C32.591 5.184 32.1643 7.66934 32.1643 10.784C32.1643 15.3067 32.9323 18.688 34.4683 20.928C35.1083 21.8667 36.0363 22.336 37.2523 22.336C38.6603 22.336 39.6523 21.664 40.2283 20.32C41.1243 18.2293 41.5723 15.4347 41.5723 11.936ZM70.1471 11.264C70.1471 13.696 69.5924 15.7973 68.4831 17.568C67.3311 19.424 65.6564 20.7787 63.4591 21.632C61.9657 22.208 59.7364 22.496 56.7711 22.496C56.7284 22.496 56.4937 22.4853 56.0671 22.464C55.6404 22.4427 55.0217 22.432 54.2111 22.432H53.0591C53.0164 22.432 52.3231 22.4427 50.9791 22.464L48.9631 22.496C48.6431 22.496 48.4831 22.4107 48.4831 22.24C48.4831 22.0267 48.7817 21.9307 49.3791 21.952C50.2964 21.9733 50.8511 21.8133 51.0431 21.472C51.1284 21.3227 51.1711 20.672 51.1711 19.52V3.232C51.1711 2.29334 51.1071 1.71734 50.9791 1.504C50.7657 1.12 50.2217 0.93867 49.3471 0.960003C48.8777 0.981337 48.6431 0.874671 48.6431 0.640003C48.6431 0.448003 48.7924 0.352003 49.0911 0.352003H49.6671C50.9471 0.352003 52.1844 0.36267 53.3791 0.384003C55.0857 0.405337 56.4084 0.416004 57.3471 0.416004C61.2297 0.416004 64.2057 1.216 66.2751 2.816C68.8564 4.82134 70.1471 7.63734 70.1471 11.264ZM64.6111 11.264C64.6111 7.744 64.0884 5.17334 63.0431 3.552C61.9977 1.90934 60.3551 1.088 58.1151 1.088C57.3044 1.088 56.7711 1.17334 56.5151 1.344C56.1737 1.55734 56.0031 2.05867 56.0031 2.848V19.232C56.0031 20.64 56.0884 21.4187 56.2591 21.568C56.5151 21.8027 57.0804 21.92 57.9551 21.92C62.3924 21.92 64.6111 18.368 64.6111 11.264ZM92.8293 11.424C92.8293 14.624 91.8266 17.3333 89.8213 19.552C87.8373 21.7493 85.3946 22.848 82.4933 22.848C79.656 22.848 77.224 21.728 75.1973 19.488C73.1706 17.248 72.1573 14.5493 72.1573 11.392C72.1573 8.14934 73.16 5.44 75.1653 3.264C77.192 1.088 79.6986 3.8147e-06 82.6853 3.8147e-06C85.5653 3.8147e-06 87.976 1.09867 89.9173 3.296C91.8586 5.472 92.8293 8.18134 92.8293 11.424ZM87.1973 11.936C87.1973 7.69067 86.696 4.55467 85.6933 2.528C85.032 1.20534 83.9866 0.544003 82.5573 0.544003C81.1066 0.544003 79.944 1.472 79.0693 3.328C78.216 5.184 77.7893 7.66934 77.7893 10.784C77.7893 15.3067 78.5573 18.688 80.0933 20.928C80.7333 21.8667 81.6613 22.336 82.8773 22.336C84.2853 22.336 85.2773 21.664 85.8533 20.32C86.7493 18.2293 87.1973 15.4347 87.1973 11.936Z" fill="white"/>
</svg>
