<svg width="21" height="20" viewBox="0 0 21 20" fill="none" xmlns="http://www.w3.org/2000/svg">
<path d="M9.38796 1.69075C9.68796 0.76975 10.991 0.76975 11.29 1.69075L12.809 6.36475C12.8743 6.56524 13.0014 6.73993 13.172 6.86385C13.3427 6.98778 13.5481 7.05459 13.759 7.05475H18.674C19.643 7.05475 20.045 8.29475 19.262 8.86475L15.286 11.7528C15.1152 11.8769 14.9881 12.052 14.9229 12.2528C14.8576 12.4536 14.8577 12.6699 14.923 12.8708L16.441 17.5448C16.741 18.4668 15.686 19.2327 14.903 18.6628L10.927 15.7747C10.7561 15.6505 10.5502 15.5836 10.339 15.5836C10.1277 15.5836 9.92185 15.6505 9.75096 15.7747L5.77496 18.6628C4.99196 19.2327 3.93696 18.4657 4.23696 17.5448L5.75496 12.8708C5.82024 12.6699 5.82028 12.4536 5.75507 12.2528C5.68986 12.052 5.56276 11.8769 5.39196 11.7528L1.41596 8.86475C0.631963 8.29475 1.03596 7.05475 2.00396 7.05475H6.91796C7.12901 7.05481 7.33466 6.98809 7.50549 6.86415C7.67631 6.74021 7.80354 6.5654 7.86896 6.36475L9.38796 1.69075Z" fill="black" stroke="black" stroke-width="2" stroke-linecap="round" stroke-linejoin="round"/>
</svg>
