<svg width="32" height="32" viewBox="0 0 32 32" fill="none" xmlns="http://www.w3.org/2000/svg">
<path fill-rule="evenodd" clip-rule="evenodd" d="M8.53372 2.90972C9.82024 2.807 11.0415 2.30098 12.0237 1.46372C13.133 0.518902 14.5426 0 15.9997 0C17.4569 0 18.8664 0.518902 19.9757 1.46372C20.9579 2.30098 22.1792 2.807 23.4657 2.90972C24.9186 3.02583 26.2826 3.65565 27.3132 4.68625C28.3438 5.71686 28.9736 7.08086 29.0897 8.53372C29.1917 9.81972 29.6977 11.0417 30.5357 12.0237C31.4805 13.133 31.9994 14.5426 31.9994 15.9997C31.9994 17.4569 31.4805 18.8664 30.5357 19.9757C29.6985 20.9579 29.1924 22.1792 29.0897 23.4657C28.9736 24.9186 28.3438 26.2826 27.3132 27.3132C26.2826 28.3438 24.9186 28.9736 23.4657 29.0897C22.1792 29.1924 20.9579 29.6985 19.9757 30.5357C18.8664 31.4805 17.4569 31.9994 15.9997 31.9994C14.5426 31.9994 13.133 31.4805 12.0237 30.5357C11.0415 29.6985 9.82024 29.1924 8.53372 29.0897C7.08086 28.9736 5.71686 28.3438 4.68625 27.3132C3.65565 26.2826 3.02583 24.9186 2.90972 23.4657C2.807 22.1792 2.30098 20.9579 1.46372 19.9757C0.518902 18.8664 0 17.4569 0 15.9997C0 14.5426 0.518902 13.133 1.46372 12.0237C2.30098 11.0415 2.807 9.82024 2.90972 8.53372C3.02583 7.08086 3.65565 5.71686 4.68625 4.68625C5.71686 3.65565 7.08086 3.02583 8.53372 2.90972ZM23.4137 13.4137C23.778 13.0365 23.9796 12.5313 23.9751 12.0069C23.9705 11.4825 23.7602 10.9809 23.3894 10.6101C23.0185 10.2393 22.5169 10.0289 21.9925 10.0244C21.4681 10.0198 20.9629 10.2214 20.5857 10.5857L13.9997 17.1717L11.4137 14.5857C11.0365 14.2214 10.5313 14.0198 10.0069 14.0244C9.48252 14.0289 8.9809 14.2393 8.61008 14.6101C8.23927 14.9809 8.02893 15.4825 8.02437 16.0069C8.01981 16.5313 8.2214 17.0365 8.58572 17.4137L12.5857 21.4137C12.9608 21.7887 13.4694 21.9993 13.9997 21.9993C14.53 21.9993 15.0387 21.7887 15.4137 21.4137L23.4137 13.4137Z" fill="black"/>
</svg>
