<svg width="22" height="22" viewBox="0 0 22 22" fill="none" xmlns="http://www.w3.org/2000/svg">
<path d="M14.6668 6.41667C14.6668 7.38913 14.2805 8.32176 13.5929 9.00939C12.9053 9.69703 11.9726 10.0833 11.0002 10.0833C10.0277 10.0833 9.09507 9.69703 8.40744 9.00939C7.7198 8.32176 7.3335 7.38913 7.3335 6.41667C7.3335 5.44421 7.7198 4.51158 8.40744 3.82394C9.09507 3.13631 10.0277 2.75 11.0002 2.75C11.9726 2.75 12.9053 3.13631 13.5929 3.82394C14.2805 4.51158 14.6668 5.44421 14.6668 6.41667ZM11.0002 12.8333C9.29836 12.8333 7.66625 13.5094 6.46289 14.7127C5.25954 15.9161 4.5835 17.5482 4.5835 19.25H17.4168C17.4168 17.5482 16.7408 15.9161 15.5374 14.7127C14.3341 13.5094 12.702 12.8333 11.0002 12.8333Z" stroke="black" stroke-width="2" stroke-linecap="round" stroke-linejoin="round"/>
</svg>
