<svg width="19" height="20" viewBox="0 0 19 20" fill="none" xmlns="http://www.w3.org/2000/svg">
<path d="M9.09961 11.4004C10.1633 11.4004 11.2175 11.6095 12.2002 12.0166C13.1827 12.4236 14.0751 13.0205 14.8271 13.7725C15.5793 14.5246 16.1759 15.4177 16.583 16.4004C16.8618 17.0735 17.0461 17.78 17.1357 18.5H1.06445C1.15405 17.7801 1.33744 17.0735 1.61621 16.4004C2.02324 15.4177 2.62001 14.5246 3.37207 13.7725C4.12416 13.0204 5.01735 12.4237 6 12.0166C6.98262 11.6096 8.03604 11.4004 9.09961 11.4004ZM9.09961 1C9.86874 1 10.6065 1.30575 11.1504 1.84961C11.6942 2.39346 12 3.13126 12 3.90039C11.9999 4.66933 11.6941 5.40644 11.1504 5.9502C10.6065 6.49405 9.86874 6.7998 9.09961 6.7998C8.33062 6.7997 7.59357 6.49396 7.0498 5.9502C6.50604 5.40643 6.2003 4.66938 6.2002 3.90039C6.2002 3.13126 6.50595 2.39347 7.0498 1.84961C7.59356 1.30591 8.33067 1.0001 9.09961 1Z" stroke="black" stroke-width="2"/>
</svg>
