<svg width="26" height="26" viewBox="0 0 26 26" fill="none" xmlns="http://www.w3.org/2000/svg">
<path d="M12.9995 14.8004C14.1287 14.8004 15.2472 15.0226 16.2905 15.4547C17.3338 15.8869 18.282 16.5205 19.0806 17.319C19.8791 18.1175 20.5126 19.0656 20.9448 20.109C21.3131 20.9981 21.5277 21.9416 21.5835 22.9H4.4165C4.47233 21.9417 4.68597 20.9981 5.0542 20.109C5.48635 19.0657 6.11997 18.1175 6.91846 17.319C7.71696 16.5205 8.66521 15.8869 9.7085 15.4547C10.7518 15.0226 11.8703 14.8005 12.9995 14.8004ZM12.9995 4.40002C13.9012 4.40002 14.7662 4.75849 15.4038 5.39612C16.0414 6.03374 16.3999 6.89868 16.3999 7.80042C16.3998 8.70196 16.0413 9.56621 15.4038 10.2037C14.7662 10.8414 13.9012 11.1998 12.9995 11.1998C12.0979 11.1997 11.2337 10.8413 10.5962 10.2037C9.95866 9.5662 9.6002 8.70201 9.6001 7.80042C9.6001 6.89868 9.95857 6.03374 10.5962 5.39612C11.2337 4.75865 12.098 4.40013 12.9995 4.40002Z" fill="black" stroke="black"/>
</svg>
